<?xml version="1.0" encoding="UTF-8"?><svg id="Layer_1" xmlns="http://www.w3.org/2000/svg" viewBox="0 0 1242.83 158.98"><defs><style>.cls-1,.cls-2{fill:#56b384;}.cls-3{fill:#212936;}.cls-2,.cls-4{opacity:.45;}.cls-5{fill:#aeafb2;}.cls-6,.cls-7{fill:none;stroke:#131826;stroke-miterlimit:10;stroke-width:1.5px;}.cls-8{opacity:.35;}.cls-8,.cls-9{fill:#dc484a;}.cls-10{fill:#fff;}.cls-11,.cls-4{fill:#e9a342;}.cls-7{stroke-linecap:round;}</style></defs><rect class="cls-3" width="1244.13" height="158.98" rx="16.82" ry="16.82"/><rect class="cls-4" x="23.52" y="65.2" width="381.41" height="65.24" rx="8.61" ry="8.61"/><rect class="cls-11" x="34.12" y="75.05" width="34.3" height="34.3" rx="9.11" ry="9.11"/><path class="cls-6" d="M50.31,83.85l-8.27,14.32c-.31.54.08,1.22.71,1.22h16.53c.63,0,1.02-.68.71-1.22l-8.27-14.32c-.31-.54-1.1-.54-1.41,0Z"/><line class="cls-7" x1="51.01" y1="88.66" x2="51.01" y2="92.97"/><line class="cls-7" x1="51.01" y1="95.93" x2="51.01" y2="95.93"/><path class="cls-11" d="M87.83,91.92h-7.93v-10.75h2.14v8.91h5.79v1.85Z"/><path class="cls-11" d="M92.49,84.16c2.34,0,4.06,1.72,4.06,3.96s-1.73,3.96-4.06,3.96-4.06-1.71-4.06-3.96,1.73-3.96,4.06-3.96ZM92.49,90.24c1.2,0,2.04-.9,2.04-2.12s-.85-2.11-2.04-2.11-2.04.9-2.04,2.11.86,2.12,2.04,2.12Z"/><path class="cls-11" d="M105.91,89.86l1.5-5.54h2.1l-2.24,7.6h-2.53l-1.36-4.61-1.36,4.61h-2.53l-2.24-7.6h2.1l1.5,5.54,1.63-5.42h1.81l1.62,5.42Z"/><path class="cls-11" d="M122.51,87.67h-2.89v-1.81h5.01v5.25c-1.09.6-2.68.97-4.03.97-3.9,0-6.33-2.3-6.33-5.54,0-3.5,2.8-5.53,6.42-5.53,1.22,0,2.42.25,3.48.73l-.17,1.91c-.48-.21-1.72-.69-3.19-.69-2.5,0-4.32,1.24-4.32,3.58,0,2.18,1.62,3.59,4.02,3.59.65,0,1.51-.09,2-.32v-2.15Z"/><path class="cls-11" d="M128.68,88.75v3.17h-2.14v-10.75h4.98c2.17,0,3.92,1.37,3.92,3.81,0,2.3-1.75,3.78-3.92,3.78h-2.84ZM128.68,83.02v3.89h2.6c1.13,0,1.96-.78,1.96-1.93,0-1.25-.85-1.96-1.96-1.96h-2.6Z"/><path class="cls-11" d="M139.66,81.01c1.74,0,3.03,1.29,3.03,2.99s-1.29,2.97-3.03,2.97-3.03-1.29-3.03-2.97,1.28-2.99,3.03-2.99ZM139.66,85.46c.84,0,1.44-.64,1.44-1.46s-.6-1.48-1.44-1.48-1.45.65-1.45,1.48.61,1.46,1.45,1.46ZM139.89,91.72l5.81-10.55h1.23v.19l-5.8,10.56h-1.24v-.21ZM147.15,86.12c1.75,0,3.04,1.29,3.04,2.99s-1.29,2.97-3.04,2.97-3.03-1.29-3.03-2.97,1.29-2.99,3.03-2.99ZM147.15,90.57c.85,0,1.44-.64,1.44-1.46s-.59-1.48-1.44-1.48-1.44.65-1.44,1.48.61,1.46,1.44,1.46Z"/><path class="cls-5" d="M86.69,110.48h-2.89v-1.81h5.01v5.25c-1.09.6-2.68.97-4.03.97-3.9,0-6.33-2.3-6.33-5.54,0-3.5,2.8-5.53,6.42-5.53,1.22,0,2.42.25,3.48.73l-.17,1.91c-.48-.21-1.72-.69-3.19-.69-2.5,0-4.32,1.24-4.32,3.58,0,2.18,1.62,3.59,4.02,3.59.65,0,1.51-.1,2-.32v-2.15Z"/><path class="cls-5" d="M92.86,111.56v3.17h-2.14v-10.75h4.98c2.17,0,3.92,1.37,3.92,3.81,0,2.3-1.75,3.78-3.92,3.78h-2.84ZM92.86,105.83v3.89h2.6c1.13,0,1.96-.78,1.96-1.93,0-1.25-.85-1.96-1.96-1.96h-2.6Z"/><path class="cls-5" d="M104.01,110.91c0-2.3,1.58-3.94,3.67-3.94,1.18,0,1.98.45,2.48,1.08l.04-.92h1.99v7.6h-1.99l-.04-.92c-.5.63-1.3,1.08-2.48,1.08-2.09,0-3.67-1.67-3.67-3.97ZM108.07,108.78c-1.22,0-2.04.92-2.04,2.13s.82,2.17,2.04,2.17,2.08-.95,2.08-2.17-.86-2.13-2.08-2.13Z"/><path class="cls-5" d="M116.71,108.81v3.13c0,.79.44,1.14,1.12,1.14.38,0,.86-.06,1.29-.18l.19,1.69c-.47.18-1.22.3-1.84.3-1.67,0-2.79-.86-2.79-2.65v-3.42h-1.28v-1.69h1.29v-2.44h1.97v2.44h2.2v1.69h-2.15Z"/><path class="cls-5" d="M131.49,112.86v1.87h-7.54v-1.62l3.45-3.19c1.05-.98,1.49-1.73,1.49-2.61,0-1.23-.88-1.61-1.93-1.61-.9,0-2,.34-2.62.72l-.29-1.81c.93-.5,2.04-.8,3.18-.8,2.06,0,3.9.94,3.9,3.38,0,1.42-.77,2.54-2.49,4.05-.59.51-1.19,1.06-1.84,1.62h4.69Z"/><path class="cls-5" d="M134.7,110.45h2.95v-2.38h2.05v2.38h1.49v1.82h-1.49v2.46h-2.05v-2.46h-5.24v-1.66l3.33-6.64h2.27l-3.3,6.48Z"/><path class="cls-5" d="M143.36,112.56c.67,0,1.18.51,1.18,1.16s-.51,1.16-1.18,1.16-1.17-.51-1.17-1.16.51-1.16,1.17-1.16Z"/><path class="cls-5" d="M145.42,109.39c0-2.96,1.3-5.58,4.56-5.58s4.56,2.72,4.56,5.58-1.31,5.5-4.56,5.5-4.56-2.53-4.56-5.5ZM149.98,112.97c1.77,0,2.45-1.78,2.45-3.62s-.69-3.62-2.45-3.62-2.45,1.77-2.45,3.62.7,3.62,2.45,3.62Z"/><path class="cls-5" d="M159.03,103.82c1.74,0,3.03,1.29,3.03,2.99s-1.29,2.97-3.03,2.97-3.03-1.29-3.03-2.97,1.28-2.99,3.03-2.99ZM159.03,108.27c.84,0,1.44-.64,1.44-1.46s-.6-1.48-1.44-1.48-1.45.65-1.45,1.48.61,1.46,1.45,1.46ZM159.26,114.52l5.81-10.55h1.23v.19l-5.8,10.56h-1.24v-.21ZM166.53,108.92c1.75,0,3.04,1.29,3.04,2.99s-1.29,2.97-3.04,2.97-3.03-1.29-3.03-2.97,1.29-2.99,3.03-2.99ZM166.53,113.37c.85,0,1.44-.64,1.44-1.46s-.59-1.48-1.44-1.48-1.44.65-1.44,1.48.61,1.46,1.44,1.46Z"/><path class="cls-5" d="M180.39,111.14h-5.48v-1.7h5.48v1.7Z"/><path class="cls-5" d="M186.26,103.97h5.01c1.93,0,3.33,1.2,3.33,2.94,0,.96-.4,1.71-1.29,2.27,1.24.45,1.85,1.42,1.85,2.56,0,1.76-1.35,2.99-3.34,2.99h-5.56v-10.75ZM190.99,108.49c.88,0,1.4-.55,1.4-1.34,0-.85-.63-1.34-1.48-1.34h-2.51v2.68h2.59ZM191.47,112.9c.85,0,1.42-.55,1.42-1.32,0-.84-.55-1.4-1.42-1.4h-3.07v2.72h3.07Z"/><path class="cls-5" d="M203.58,114.17c-.74.42-1.76.71-2.87.71-2.69,0-4.42-1.59-4.42-3.96s1.65-3.96,3.9-3.96,4.11,1.76,3.61,4.57h-5.5c.21,1.06,1.16,1.57,2.41,1.57.94,0,1.82-.22,2.57-.58l.29,1.65ZM201.99,110.17c-.05-.85-.7-1.5-1.74-1.5s-1.81.63-1.9,1.5h3.64Z"/><path class="cls-5" d="M207.42,114.73h-2.03v-11.15h2.03v11.15Z"/><path class="cls-5" d="M212.98,106.97c2.34,0,4.06,1.72,4.06,3.96s-1.73,3.96-4.06,3.96-4.06-1.71-4.06-3.96,1.73-3.96,4.06-3.96ZM212.98,113.05c1.2,0,2.04-.9,2.04-2.12s-.85-2.11-2.04-2.11-2.04.9-2.04,2.11.86,2.12,2.04,2.12Z"/><path class="cls-5" d="M226.39,112.66l1.5-5.54h2.1l-2.24,7.6h-2.53l-1.36-4.61-1.36,4.61h-2.53l-2.24-7.6h2.1l1.5,5.54,1.63-5.42h1.81l1.62,5.42Z"/><path class="cls-5" d="M242.26,112.86v1.87h-7.54v-1.62l3.44-3.19c1.05-.98,1.49-1.73,1.49-2.61,0-1.23-.88-1.61-1.93-1.61-.9,0-2,.34-2.62.72l-.29-1.81c.93-.5,2.04-.8,3.18-.8,2.06,0,3.9.94,3.9,3.38,0,1.42-.77,2.54-2.49,4.05-.59.51-1.19,1.06-1.84,1.62h4.69Z"/><path class="cls-5" d="M246.79,114.89c-1.24,0-2.47-.27-3.42-.71l.28-1.84c.82.42,1.9.67,2.91.67,1.36,0,2.33-.47,2.33-1.69,0-1.29-1.06-1.77-2.52-1.77-.79,0-1.58.1-2.21.29l-.36-.36.67-5.54h6.19v1.88h-4.52l-.22,2.09c.29-.06.67-.09,1.03-.09,2.27,0,4.21,1.09,4.21,3.38,0,2.65-1.98,3.66-4.36,3.66Z"/><path class="cls-5" d="M255.52,103.82c1.74,0,3.03,1.29,3.03,2.99s-1.29,2.97-3.03,2.97-3.03-1.29-3.03-2.97,1.28-2.99,3.03-2.99ZM255.52,108.27c.84,0,1.44-.64,1.44-1.46s-.6-1.48-1.44-1.48-1.45.65-1.45,1.48.61,1.46,1.45,1.46ZM255.76,114.52l5.81-10.55h1.23v.19l-5.8,10.56h-1.24v-.21ZM263.02,108.92c1.75,0,3.04,1.29,3.04,2.99s-1.29,2.97-3.04,2.97-3.03-1.29-3.03-2.97,1.29-2.99,3.03-2.99ZM263.02,113.37c.85,0,1.44-.64,1.44-1.46s-.59-1.48-1.44-1.48-1.44.65-1.44,1.48.61,1.46,1.44,1.46Z"/><path class="cls-5" d="M274.15,108.81v3.13c0,.79.44,1.14,1.12,1.14.38,0,.86-.06,1.29-.18l.19,1.69c-.47.18-1.22.3-1.84.3-1.67,0-2.8-.86-2.8-2.65v-3.42h-1.28v-1.69h1.29v-2.44h1.97v2.44h2.2v1.69h-2.15Z"/><path class="cls-5" d="M277.4,110.91c0-2.3,1.58-3.94,3.67-3.94,1.18,0,1.98.45,2.48,1.08l.04-.92h1.99v7.6h-1.99l-.04-.92c-.5.63-1.3,1.08-2.48,1.08-2.09,0-3.67-1.67-3.67-3.97ZM281.47,108.78c-1.22,0-2.04.92-2.04,2.13s.82,2.17,2.04,2.17,2.08-.95,2.08-2.17-.86-2.13-2.08-2.13Z"/><path class="cls-5" d="M289.5,108.16c.39-.79,1.12-1.2,1.98-1.2.45,0,.83.12.99.17l-.16,1.81c-.21-.07-.54-.17-.94-.17-.89,0-1.84.48-1.84,2.05v3.9h-2.04v-7.6h1.96l.04,1.04Z"/><path class="cls-5" d="M293.02,110.92c0-2.31,1.53-3.95,3.68-3.95,1.22,0,2,.44,2.51,1.08l.04-.92h1.95v7.33c0,2.41-2.05,3.59-4.42,3.59-1.24,0-2.37-.29-3.03-.63l.24-1.74c.58.31,1.69.57,2.66.57,1.28,0,2.53-.57,2.53-1.84v-.54c-.46.61-1.35,1.01-2.47,1.01-2.15,0-3.68-1.67-3.68-3.97ZM297.13,108.79c-1.21,0-2.06.9-2.06,2.12s.85,2.15,2.06,2.15,2.07-.95,2.07-2.15-.87-2.12-2.07-2.12Z"/><path class="cls-5" d="M309.99,114.17c-.74.42-1.76.71-2.87.71-2.69,0-4.42-1.59-4.42-3.96s1.65-3.96,3.9-3.96,4.11,1.76,3.61,4.57h-5.5c.21,1.06,1.16,1.57,2.41,1.57.94,0,1.82-.22,2.57-.58l.29,1.65ZM308.39,110.17c-.05-.85-.7-1.5-1.74-1.5s-1.81.63-1.9,1.5h3.64Z"/><path class="cls-5" d="M314.3,108.81v3.13c0,.79.44,1.14,1.12,1.14.38,0,.86-.06,1.29-.18l.19,1.69c-.47.18-1.22.3-1.84.3-1.67,0-2.79-.86-2.79-2.65v-3.42h-1.28v-1.69h1.29v-2.44h1.97v2.44h2.2v1.69h-2.15Z"/><path class="cls-10" d="M28.11,42.26h-3.82v-12.99h3.82v12.99Z"/><path class="cls-10" d="M39.12,36.1v6.16h-3.67v-5.07c0-.65-.46-1.1-1.12-1.1s-1.11.45-1.11,1.1v5.07h-3.67v-9.18h3.35l.09.88c.52-.63,1.54-1.07,2.85-1.07,1.95,0,3.29,1.3,3.29,3.21Z"/><path class="cls-10" d="M45.51,36.63c1.92.33,2.71,1.18,2.71,2.78,0,1.89-1.55,3.03-4.14,3.03-1.42,0-2.84-.21-3.83-.56l.33-2.76c.63.22,1.9.55,3.07.55.77,0,1.22-.09,1.22-.32,0-.21-.33-.28-1.15-.39l-.6-.09c-2.08-.3-3.01-1.11-3.01-2.86,0-1.97,1.66-3.15,4.41-3.15,1.19,0,2.58.24,3.22.48l-.35,2.79c-.47-.2-1.71-.43-2.57-.43-.99,0-1.43.12-1.43.37,0,.21.4.24,1.52.43l.6.11Z"/><path class="cls-10" d="M49.02,30.24c0-1.21.81-2.04,2.01-2.04s2.04.82,2.04,2.04-.82,2.01-2.04,2.01-2.01-.81-2.01-2.01ZM49.21,42.26v-9.18h3.67v9.18h-3.67Z"/><path class="cls-10" d="M53.91,37.68c0-2.73,1.73-4.79,4.16-4.79,1.27,0,1.99.49,2.45,1.04l.09-.85h3.6v9.06c0,2.62-2.26,4.14-5.8,4.14-1.76,0-3.04-.36-3.66-.67l.29-2.97c.72.38,1.88.68,3.04.68,1.52,0,2.43-.52,2.43-1.36v-.42c-.49.51-1.21.91-2.43.91-2.43,0-4.16-2.07-4.16-4.77ZM59.03,35.94c-.98,0-1.65.7-1.65,1.72s.67,1.7,1.65,1.7,1.61-.69,1.61-1.7-.65-1.72-1.61-1.72Z"/><path class="cls-10" d="M75.09,36.1v6.16h-3.67v-5.07c0-.65-.46-1.1-1.12-1.1s-1.11.45-1.11,1.1v5.07h-3.67v-13.47h3.67v4.92c.56-.5,1.47-.82,2.61-.82,1.95,0,3.29,1.3,3.29,3.21Z"/><path class="cls-10" d="M80.74,35.96v2.15c0,.92.46,1.21,1.17,1.21.56,0,1.14-.09,1.6-.22l.19,2.86c-.5.23-1.59.48-2.66.48-2.19,0-3.88-.98-3.88-3.72v-2.77h-1.38v-2.89h1.37v-2.95h3.45v2.95h2.53v2.89h-2.39Z"/><path class="cls-10" d="M89.61,36.63c1.92.33,2.71,1.18,2.71,2.78,0,1.89-1.55,3.03-4.14,3.03-1.42,0-2.84-.21-3.83-.56l.33-2.76c.63.22,1.9.55,3.07.55.77,0,1.22-.09,1.22-.32,0-.21-.33-.28-1.15-.39l-.6-.09c-2.08-.3-3.01-1.11-3.01-2.86,0-1.97,1.66-3.15,4.41-3.15,1.19,0,2.58.24,3.22.48l-.35,2.79c-.47-.2-1.71-.43-2.57-.43-.99,0-1.43.12-1.43.37,0,.21.4.24,1.52.43l.6.11Z"/><path class="cls-10" d="M107.05,32.65c-.63-.34-1.51-.55-2.51-.55-.77,0-1.39.29-1.39,1,0,.57.6,1.05,1.42,1.75l2.54,2.18c.25-.39.42-1.12.42-1.81,0-.09,0-.16,0-.25h3.4v.15c0,1.52-.41,2.85-1.35,4.06l3.29,3.06h-4.36l-1.05-1.02c-1.07.79-2.57,1.22-4.07,1.22-2.71,0-5.41-1.36-5.45-4.22,0-1.43.94-2.83,2.32-3.49-.54-.72-.71-1.45-.71-2.05,0-2.64,2.33-3.63,4.75-3.63,1,0,2.04.18,3.03.61l-.27,2.98ZM102.26,36.57c-.45.28-.75.69-.75,1.25,0,1.16.97,1.66,1.96,1.66.54,0,1.08-.1,1.51-.4l-2.73-2.52Z"/><path class="cls-10" d="M126.28,40.09h-4.71l-.83,2.17h-4.08l4.99-12.99h4.55l4.98,12.99h-4.08l-.84-2.17ZM122.45,37.21h2.97l-1.48-4.34-1.49,4.34Z"/><path class="cls-10" d="M135.6,42.26h-3.67v-13.47h3.67v13.47Z"/><path class="cls-10" d="M145.65,41.65c-.65.36-1.99.8-3.55.8-3.47,0-5.48-1.91-5.48-4.8s1.93-4.76,4.85-4.76,4.99,1.76,4.41,5.59h-5.83c.07.71,1.09,1.13,2.22,1.13,1.21,0,2.37-.27,2.97-.55l.41,2.6ZM142.65,36.73c0-.55-.46-1.18-1.22-1.18-.87,0-1.31.57-1.37,1.18h2.59Z"/><path class="cls-10" d="M150.49,34.33c.43-.95,1.39-1.44,2.47-1.44.33,0,.71.06,1.09.17l-.22,3.08c-.25-.1-.59-.2-1.08-.2-1.3,0-2.07.76-2.07,2.2v4.12h-3.67v-9.18h3.35l.13,1.25Z"/><path class="cls-10" d="M159.29,35.96v2.15c0,.92.46,1.21,1.17,1.21.56,0,1.14-.09,1.6-.22l.19,2.86c-.5.23-1.59.48-2.66.48-2.19,0-3.88-.98-3.88-3.72v-2.77h-1.38v-2.89h1.37v-2.95h3.45v2.95h2.53v2.89h-2.39Z"/><path class="cls-10" d="M168.15,36.63c1.92.33,2.71,1.18,2.71,2.78,0,1.89-1.55,3.03-4.14,3.03-1.42,0-2.84-.21-3.83-.56l.33-2.76c.63.22,1.9.55,3.07.55.77,0,1.22-.09,1.22-.32,0-.21-.33-.28-1.15-.39l-.6-.09c-2.08-.3-3.01-1.11-3.01-2.86,0-1.97,1.66-3.15,4.41-3.15,1.19,0,2.58.24,3.22.48l-.35,2.79c-.47-.2-1.71-.43-2.57-.43-.99,0-1.43.12-1.43.37,0,.21.4.24,1.52.43l.6.11Z"/><rect class="cls-2" x="427.97" y="65.2" width="381.41" height="65.24" rx="8.61" ry="8.61"/><rect class="cls-1" x="438.56" y="75.05" width="34.3" height="34.3" rx="9.11" ry="9.11"/><path class="cls-1" d="M492.28,91.92h-7.93v-10.75h2.14v8.91h5.79v1.85Z"/><path class="cls-1" d="M496.94,84.16c2.34,0,4.06,1.72,4.06,3.96s-1.73,3.96-4.06,3.96-4.06-1.71-4.06-3.96,1.73-3.96,4.06-3.96ZM496.94,90.24c1.2,0,2.04-.9,2.04-2.12s-.85-2.11-2.04-2.11-2.04.9-2.04,2.11.86,2.12,2.04,2.12Z"/><path class="cls-1" d="M510.36,89.86l1.5-5.54h2.1l-2.24,7.6h-2.53l-1.36-4.61-1.36,4.61h-2.53l-2.24-7.6h2.1l1.5,5.54,1.63-5.42h1.81l1.62,5.42Z"/><path class="cls-1" d="M526.96,87.67h-2.89v-1.81h5.01v5.25c-1.09.6-2.68.97-4.03.97-3.9,0-6.33-2.3-6.33-5.54,0-3.5,2.8-5.53,6.42-5.53,1.22,0,2.42.25,3.48.73l-.17,1.91c-.48-.21-1.72-.69-3.19-.69-2.49,0-4.32,1.24-4.32,3.58,0,2.18,1.62,3.59,4.02,3.59.65,0,1.51-.09,2-.32v-2.15Z"/><path class="cls-1" d="M533.13,88.75v3.17h-2.14v-10.75h4.98c2.17,0,3.92,1.37,3.92,3.81,0,2.3-1.75,3.78-3.92,3.78h-2.84ZM533.13,83.02v3.89h2.6c1.13,0,1.96-.78,1.96-1.93,0-1.25-.85-1.96-1.96-1.96h-2.6Z"/><path class="cls-1" d="M544.1,81.01c1.74,0,3.03,1.29,3.03,2.99s-1.29,2.97-3.03,2.97-3.03-1.29-3.03-2.97,1.28-2.99,3.03-2.99ZM544.1,85.46c.84,0,1.44-.64,1.44-1.46s-.6-1.48-1.44-1.48-1.45.65-1.45,1.48.61,1.46,1.45,1.46ZM544.34,91.72l5.81-10.55h1.23v.19l-5.8,10.56h-1.24v-.21ZM551.6,86.12c1.75,0,3.04,1.29,3.04,2.99s-1.29,2.97-3.04,2.97-3.03-1.29-3.03-2.97,1.29-2.99,3.03-2.99ZM551.6,90.57c.85,0,1.44-.64,1.44-1.46s-.59-1.48-1.44-1.48-1.44.65-1.44,1.48.61,1.46,1.44,1.46Z"/><path class="cls-5" d="M491.14,110.48h-2.89v-1.81h5.01v5.25c-1.09.6-2.68.97-4.03.97-3.9,0-6.33-2.3-6.33-5.54,0-3.5,2.8-5.53,6.42-5.53,1.22,0,2.42.25,3.48.73l-.17,1.91c-.48-.21-1.72-.69-3.19-.69-2.49,0-4.32,1.24-4.32,3.58,0,2.18,1.62,3.59,4.02,3.59.65,0,1.51-.1,2-.32v-2.15Z"/><path class="cls-5" d="M497.31,111.56v3.17h-2.14v-10.75h4.98c2.17,0,3.92,1.37,3.92,3.81,0,2.3-1.75,3.78-3.92,3.78h-2.84ZM497.31,105.83v3.89h2.6c1.13,0,1.96-.78,1.96-1.93,0-1.25-.85-1.96-1.96-1.96h-2.6Z"/><path class="cls-5" d="M508.45,110.91c0-2.3,1.58-3.94,3.67-3.94,1.18,0,1.98.45,2.48,1.08l.04-.92h1.99v7.6h-1.99l-.04-.92c-.5.63-1.3,1.08-2.48,1.08-2.09,0-3.67-1.67-3.67-3.97ZM512.51,108.78c-1.22,0-2.04.92-2.04,2.13s.82,2.17,2.04,2.17,2.08-.95,2.08-2.17-.86-2.13-2.08-2.13Z"/><path class="cls-5" d="M521.15,108.81v3.13c0,.79.44,1.14,1.12,1.14.38,0,.86-.06,1.29-.18l.19,1.69c-.47.18-1.22.3-1.84.3-1.67,0-2.8-.86-2.8-2.65v-3.42h-1.28v-1.69h1.29v-2.44h1.97v2.44h2.2v1.69h-2.15Z"/><path class="cls-5" d="M535.93,112.86v1.87h-7.54v-1.62l3.44-3.19c1.05-.98,1.49-1.73,1.49-2.61,0-1.23-.88-1.61-1.93-1.61-.9,0-2,.34-2.62.72l-.29-1.81c.93-.5,2.04-.8,3.18-.8,2.06,0,3.9.94,3.9,3.38,0,1.42-.77,2.54-2.49,4.05-.59.51-1.19,1.06-1.84,1.62h4.69Z"/><path class="cls-5" d="M539.15,110.45h2.95v-2.38h2.05v2.38h1.49v1.82h-1.49v2.46h-2.05v-2.46h-5.24v-1.66l3.33-6.64h2.27l-3.3,6.48Z"/><path class="cls-5" d="M547.8,112.56c.67,0,1.18.51,1.18,1.16s-.51,1.16-1.18,1.16-1.17-.51-1.17-1.16.51-1.16,1.17-1.16Z"/><path class="cls-5" d="M549.86,109.39c0-2.96,1.3-5.58,4.56-5.58s4.56,2.72,4.56,5.58-1.31,5.5-4.56,5.5-4.56-2.53-4.56-5.5ZM554.43,112.97c1.77,0,2.45-1.78,2.45-3.62s-.69-3.62-2.45-3.62-2.45,1.77-2.45,3.62.7,3.62,2.45,3.62Z"/><path class="cls-5" d="M563.47,103.82c1.74,0,3.03,1.29,3.03,2.99s-1.29,2.97-3.03,2.97-3.03-1.29-3.03-2.97,1.28-2.99,3.03-2.99ZM563.47,108.27c.84,0,1.44-.64,1.44-1.46s-.6-1.48-1.44-1.48-1.45.65-1.45,1.48.61,1.46,1.45,1.46ZM563.71,114.52l5.81-10.55h1.23v.19l-5.8,10.56h-1.24v-.21ZM570.97,108.92c1.75,0,3.04,1.29,3.04,2.99s-1.29,2.97-3.04,2.97-3.03-1.29-3.03-2.97,1.29-2.99,3.03-2.99ZM570.97,113.37c.85,0,1.44-.64,1.44-1.46s-.59-1.48-1.44-1.48-1.44.65-1.44,1.48.61,1.46,1.44,1.46Z"/><path class="cls-5" d="M584.84,111.14h-5.48v-1.7h5.48v1.7Z"/><path class="cls-5" d="M590.71,103.97h5.01c1.93,0,3.33,1.2,3.33,2.94,0,.96-.4,1.71-1.29,2.27,1.24.45,1.85,1.42,1.85,2.56,0,1.76-1.35,2.99-3.34,2.99h-5.56v-10.75ZM595.43,108.49c.88,0,1.4-.55,1.4-1.34,0-.85-.63-1.34-1.48-1.34h-2.51v2.68h2.59ZM595.92,112.9c.85,0,1.42-.55,1.42-1.32,0-.84-.55-1.4-1.42-1.4h-3.07v2.72h3.07Z"/><path class="cls-5" d="M608.03,114.17c-.74.42-1.76.71-2.87.71-2.69,0-4.42-1.59-4.42-3.96s1.65-3.96,3.9-3.96,4.11,1.76,3.61,4.57h-5.5c.21,1.06,1.16,1.57,2.41,1.57.94,0,1.82-.22,2.57-.58l.29,1.65ZM606.44,110.17c-.06-.85-.7-1.5-1.74-1.5s-1.81.63-1.9,1.5h3.64Z"/><path class="cls-5" d="M611.87,114.73h-2.03v-11.15h2.03v11.15Z"/><path class="cls-5" d="M617.42,106.97c2.34,0,4.06,1.72,4.06,3.96s-1.73,3.96-4.06,3.96-4.06-1.71-4.06-3.96,1.73-3.96,4.06-3.96ZM617.42,113.05c1.2,0,2.04-.9,2.04-2.12s-.85-2.11-2.04-2.11-2.04.9-2.04,2.11.86,2.12,2.04,2.12Z"/><path class="cls-5" d="M630.84,112.66l1.5-5.54h2.1l-2.24,7.6h-2.53l-1.36-4.61-1.36,4.61h-2.53l-2.24-7.6h2.1l1.5,5.54,1.63-5.42h1.81l1.62,5.42Z"/><path class="cls-5" d="M646.71,112.86v1.87h-7.54v-1.62l3.44-3.19c1.05-.98,1.49-1.73,1.49-2.61,0-1.23-.88-1.61-1.93-1.61-.9,0-2,.34-2.62.72l-.29-1.81c.93-.5,2.04-.8,3.18-.8,2.06,0,3.9.94,3.9,3.38,0,1.42-.77,2.54-2.49,4.05-.59.51-1.19,1.06-1.84,1.62h4.69Z"/><path class="cls-5" d="M651.23,114.89c-1.24,0-2.47-.27-3.42-.71l.28-1.84c.82.42,1.9.67,2.91.67,1.36,0,2.33-.47,2.33-1.69,0-1.29-1.06-1.77-2.52-1.77-.79,0-1.58.1-2.21.29l-.36-.36.67-5.54h6.19v1.88h-4.52l-.22,2.09c.29-.06.67-.09,1.03-.09,2.27,0,4.21,1.09,4.21,3.38,0,2.65-1.98,3.66-4.36,3.66Z"/><path class="cls-5" d="M659.97,103.82c1.74,0,3.03,1.29,3.03,2.99s-1.29,2.97-3.03,2.97-3.03-1.29-3.03-2.97,1.28-2.99,3.03-2.99ZM659.97,108.27c.84,0,1.44-.64,1.44-1.46s-.6-1.48-1.44-1.48-1.45.65-1.45,1.48.61,1.46,1.45,1.46ZM660.2,114.52l5.81-10.55h1.23v.19l-5.8,10.56h-1.24v-.21ZM667.47,108.92c1.75,0,3.04,1.29,3.04,2.99s-1.29,2.97-3.04,2.97-3.03-1.29-3.03-2.97,1.29-2.99,3.03-2.99ZM667.47,113.37c.85,0,1.44-.64,1.44-1.46s-.59-1.48-1.44-1.48-1.44.65-1.44,1.48.61,1.46,1.44,1.46Z"/><path class="cls-5" d="M678.59,108.81v3.13c0,.79.44,1.14,1.12,1.14.38,0,.86-.06,1.29-.18l.19,1.69c-.47.18-1.22.3-1.84.3-1.67,0-2.8-.86-2.8-2.65v-3.42h-1.28v-1.69h1.29v-2.44h1.97v2.44h2.2v1.69h-2.15Z"/><path class="cls-5" d="M681.85,110.91c0-2.3,1.58-3.94,3.67-3.94,1.18,0,1.98.45,2.48,1.08l.04-.92h1.99v7.6h-1.99l-.04-.92c-.5.63-1.3,1.08-2.48,1.08-2.09,0-3.67-1.67-3.67-3.97ZM685.91,108.78c-1.22,0-2.04.92-2.04,2.13s.82,2.17,2.04,2.17,2.08-.95,2.08-2.17-.86-2.13-2.08-2.13Z"/><path class="cls-5" d="M693.94,108.16c.39-.79,1.12-1.2,1.98-1.2.45,0,.83.12.99.17l-.16,1.81c-.21-.07-.54-.17-.94-.17-.89,0-1.84.48-1.84,2.05v3.9h-2.04v-7.6h1.96l.04,1.04Z"/><path class="cls-5" d="M697.47,110.92c0-2.31,1.53-3.95,3.68-3.95,1.22,0,2,.44,2.51,1.08l.04-.92h1.95v7.33c0,2.41-2.05,3.59-4.42,3.59-1.24,0-2.37-.29-3.03-.63l.24-1.74c.58.31,1.69.57,2.66.57,1.28,0,2.53-.57,2.53-1.84v-.54c-.46.61-1.35,1.01-2.47,1.01-2.15,0-3.68-1.67-3.68-3.97ZM701.57,108.79c-1.21,0-2.06.9-2.06,2.12s.85,2.15,2.06,2.15,2.07-.95,2.07-2.15-.87-2.12-2.07-2.12Z"/><path class="cls-5" d="M714.43,114.17c-.74.42-1.76.71-2.87.71-2.69,0-4.42-1.59-4.42-3.96s1.65-3.96,3.9-3.96,4.11,1.76,3.61,4.57h-5.5c.21,1.06,1.16,1.57,2.41,1.57.94,0,1.82-.22,2.57-.58l.29,1.65ZM712.84,110.17c-.06-.85-.7-1.5-1.74-1.5s-1.81.63-1.9,1.5h3.64Z"/><path class="cls-5" d="M718.75,108.81v3.13c0,.79.44,1.14,1.12,1.14.38,0,.86-.06,1.29-.18l.19,1.69c-.47.18-1.22.3-1.84.3-1.67,0-2.8-.86-2.8-2.65v-3.42h-1.28v-1.69h1.29v-2.44h1.97v2.44h2.2v1.69h-2.15Z"/><circle class="cls-6" cx="455.38" cy="92.26" r="6.39"/><rect class="cls-1" x="455.31" y="87.14" width="9.59" height="3.91" transform="translate(71.76 351.44) rotate(-45)"/><path class="cls-7" d="M453.19,91.56l2.24,2.24,6.69-6.69"/><rect class="cls-8" x="833.43" y="66.02" width="381.41" height="65.24" rx="8.61" ry="8.61"/><rect class="cls-9" x="844.03" y="75.87" width="34.3" height="34.3" rx="9.11" ry="9.11"/><path class="cls-9" d="M897.75,92.74h-7.93v-10.75h2.14v8.91h5.79v1.84Z"/><path class="cls-9" d="M902.4,84.98c2.34,0,4.06,1.72,4.06,3.96s-1.73,3.96-4.06,3.96-4.06-1.71-4.06-3.96,1.73-3.96,4.06-3.96ZM902.4,91.06c1.2,0,2.04-.9,2.04-2.12s-.85-2.11-2.04-2.11-2.04.9-2.04,2.11.86,2.12,2.04,2.12Z"/><path class="cls-9" d="M915.82,90.67l1.5-5.54h2.1l-2.24,7.6h-2.53l-1.36-4.61-1.36,4.61h-2.53l-2.24-7.6h2.1l1.5,5.54,1.63-5.42h1.81l1.62,5.42Z"/><path class="cls-9" d="M932.42,88.49h-2.89v-1.81h5.01v5.25c-1.09.6-2.68.97-4.03.97-3.9,0-6.33-2.3-6.33-5.54,0-3.5,2.8-5.53,6.42-5.53,1.22,0,2.42.25,3.48.73l-.17,1.91c-.47-.21-1.72-.69-3.19-.69-2.49,0-4.32,1.24-4.32,3.58,0,2.18,1.62,3.59,4.02,3.59.65,0,1.51-.1,2-.32v-2.15Z"/><path class="cls-9" d="M938.59,89.57v3.17h-2.14v-10.75h4.98c2.17,0,3.92,1.37,3.92,3.81,0,2.3-1.75,3.78-3.92,3.78h-2.84ZM938.59,83.84v3.89h2.6c1.13,0,1.96-.78,1.96-1.93,0-1.25-.85-1.96-1.96-1.96h-2.6Z"/><path class="cls-9" d="M949.57,81.83c1.74,0,3.03,1.29,3.03,2.99s-1.29,2.97-3.03,2.97-3.03-1.29-3.03-2.97,1.28-2.99,3.03-2.99ZM949.57,86.28c.84,0,1.44-.64,1.44-1.46s-.6-1.48-1.44-1.48-1.45.65-1.45,1.48.61,1.46,1.45,1.46ZM949.8,92.53l5.81-10.55h1.23v.19l-5.8,10.56h-1.24v-.21ZM957.07,86.94c1.75,0,3.04,1.29,3.04,2.99s-1.29,2.97-3.04,2.97-3.03-1.29-3.03-2.97,1.29-2.99,3.03-2.99ZM957.07,91.39c.85,0,1.44-.64,1.44-1.46s-.59-1.48-1.44-1.48-1.44.65-1.44,1.48.61,1.46,1.44,1.46Z"/><path class="cls-5" d="M896.6,111.29h-2.89v-1.81h5.01v5.25c-1.09.6-2.68.97-4.03.97-3.9,0-6.33-2.3-6.33-5.54,0-3.5,2.8-5.53,6.42-5.53,1.22,0,2.42.25,3.48.73l-.17,1.91c-.47-.21-1.72-.69-3.19-.69-2.49,0-4.32,1.24-4.32,3.58,0,2.18,1.62,3.59,4.02,3.59.65,0,1.51-.09,2-.32v-2.15Z"/><path class="cls-5" d="M902.77,112.38v3.17h-2.14v-10.75h4.98c2.17,0,3.92,1.37,3.92,3.81,0,2.3-1.75,3.78-3.92,3.78h-2.84ZM902.77,106.65v3.89h2.6c1.13,0,1.96-.78,1.96-1.93,0-1.25-.85-1.96-1.96-1.96h-2.6Z"/><path class="cls-5" d="M913.92,111.73c0-2.3,1.58-3.94,3.67-3.94,1.18,0,1.98.45,2.48,1.08l.04-.92h1.99v7.6h-1.99l-.04-.92c-.5.63-1.3,1.08-2.48,1.08-2.09,0-3.67-1.67-3.67-3.98ZM917.98,109.6c-1.22,0-2.04.92-2.04,2.13s.82,2.17,2.04,2.17,2.08-.95,2.08-2.17-.86-2.13-2.08-2.13Z"/><path class="cls-5" d="M926.62,109.63v3.13c0,.79.44,1.14,1.12,1.14.38,0,.86-.06,1.29-.18l.19,1.69c-.47.18-1.22.3-1.84.3-1.67,0-2.8-.86-2.8-2.65v-3.42h-1.28v-1.69h1.29v-2.44h1.97v2.44h2.2v1.69h-2.15Z"/><path class="cls-5" d="M941.4,113.68v1.87h-7.54v-1.62l3.44-3.19c1.05-.98,1.49-1.73,1.49-2.61,0-1.23-.88-1.61-1.93-1.61-.9,0-2,.34-2.62.72l-.29-1.81c.93-.5,2.04-.8,3.18-.8,2.06,0,3.9.94,3.9,3.38,0,1.42-.77,2.54-2.49,4.05-.59.51-1.19,1.06-1.84,1.62h4.69Z"/><path class="cls-5" d="M944.61,111.27h2.95v-2.38h2.05v2.38h1.49v1.82h-1.49v2.46h-2.05v-2.46h-5.24v-1.66l3.33-6.64h2.27l-3.3,6.48Z"/><path class="cls-5" d="M953.27,113.38c.67,0,1.18.51,1.18,1.16s-.51,1.16-1.18,1.16-1.17-.51-1.17-1.16.51-1.16,1.17-1.16Z"/><path class="cls-5" d="M955.33,110.21c0-2.96,1.3-5.58,4.56-5.58s4.56,2.72,4.56,5.58-1.31,5.5-4.56,5.5-4.56-2.53-4.56-5.5ZM959.89,113.79c1.77,0,2.45-1.78,2.45-3.62s-.69-3.62-2.45-3.62-2.45,1.77-2.45,3.62.7,3.62,2.45,3.62Z"/><path class="cls-5" d="M968.94,104.63c1.74,0,3.03,1.29,3.03,2.99s-1.29,2.97-3.03,2.97-3.03-1.29-3.03-2.97,1.28-2.99,3.03-2.99ZM968.94,109.08c.84,0,1.44-.64,1.44-1.46s-.6-1.48-1.44-1.48-1.45.65-1.45,1.48.61,1.46,1.45,1.46ZM969.17,115.34l5.81-10.55h1.23v.19l-5.8,10.56h-1.24v-.21ZM976.44,109.74c1.75,0,3.04,1.29,3.04,2.99s-1.29,2.97-3.04,2.97-3.03-1.29-3.03-2.97,1.29-2.99,3.03-2.99ZM976.44,114.19c.85,0,1.44-.64,1.44-1.46s-.59-1.48-1.44-1.48-1.44.65-1.44,1.48.61,1.46,1.44,1.46Z"/><path class="cls-5" d="M990.3,111.96h-5.48v-1.69h5.48v1.69Z"/><path class="cls-5" d="M996.17,104.79h5.01c1.93,0,3.33,1.2,3.33,2.94,0,.96-.4,1.71-1.29,2.27,1.24.45,1.85,1.43,1.85,2.56,0,1.76-1.35,2.99-3.34,2.99h-5.56v-10.75ZM1000.9,109.31c.88,0,1.4-.55,1.4-1.34,0-.85-.63-1.34-1.48-1.34h-2.51v2.68h2.59ZM1001.38,113.72c.86,0,1.42-.55,1.42-1.32,0-.84-.55-1.4-1.42-1.4h-3.07v2.72h3.07Z"/><path class="cls-5" d="M1013.49,114.99c-.74.42-1.76.71-2.87.71-2.69,0-4.42-1.59-4.42-3.96s1.65-3.96,3.9-3.96,4.11,1.76,3.61,4.57h-5.5c.21,1.06,1.16,1.57,2.41,1.57.94,0,1.82-.22,2.57-.58l.29,1.65ZM1011.9,110.99c-.06-.85-.7-1.5-1.74-1.5s-1.81.63-1.9,1.5h3.64Z"/><path class="cls-5" d="M1017.34,115.55h-2.03v-11.15h2.03v11.15Z"/><path class="cls-5" d="M1022.89,107.79c2.34,0,4.06,1.72,4.06,3.96s-1.73,3.96-4.06,3.96-4.06-1.71-4.06-3.96,1.73-3.96,4.06-3.96ZM1022.89,113.87c1.2,0,2.04-.9,2.04-2.12s-.85-2.11-2.04-2.11-2.04.9-2.04,2.11.86,2.12,2.04,2.12Z"/><path class="cls-5" d="M1036.3,113.48l1.5-5.54h2.1l-2.24,7.6h-2.53l-1.36-4.61-1.36,4.61h-2.53l-2.24-7.6h2.1l1.5,5.54,1.63-5.42h1.81l1.62,5.42Z"/><path class="cls-5" d="M1052.17,113.68v1.87h-7.54v-1.62l3.45-3.19c1.05-.98,1.49-1.73,1.49-2.61,0-1.23-.88-1.61-1.93-1.61-.9,0-2,.34-2.62.72l-.29-1.81c.93-.5,2.04-.8,3.18-.8,2.06,0,3.9.94,3.9,3.38,0,1.42-.77,2.54-2.49,4.05-.59.51-1.19,1.06-1.84,1.62h4.69Z"/><path class="cls-5" d="M1056.7,115.71c-1.24,0-2.47-.27-3.42-.71l.28-1.84c.82.42,1.9.67,2.91.67,1.36,0,2.33-.47,2.33-1.69,0-1.29-1.06-1.77-2.52-1.77-.79,0-1.58.1-2.21.29l-.36-.36.67-5.54h6.19v1.88h-4.52l-.22,2.09c.29-.06.67-.09,1.03-.09,2.27,0,4.21,1.09,4.21,3.38,0,2.64-1.98,3.66-4.36,3.66Z"/><path class="cls-5" d="M1065.43,104.63c1.74,0,3.03,1.29,3.03,2.99s-1.29,2.97-3.03,2.97-3.03-1.29-3.03-2.97,1.28-2.99,3.03-2.99ZM1065.43,109.08c.84,0,1.44-.64,1.44-1.46s-.6-1.48-1.44-1.48-1.45.65-1.45,1.48.61,1.46,1.45,1.46ZM1065.67,115.34l5.81-10.55h1.23v.19l-5.8,10.56h-1.24v-.21ZM1072.93,109.74c1.75,0,3.04,1.29,3.04,2.99s-1.29,2.97-3.04,2.97-3.03-1.29-3.03-2.97,1.29-2.99,3.03-2.99ZM1072.93,114.19c.85,0,1.44-.64,1.44-1.46s-.59-1.48-1.44-1.48-1.44.65-1.44,1.48.61,1.46,1.44,1.46Z"/><path class="cls-5" d="M1084.06,109.63v3.13c0,.79.44,1.14,1.12,1.14.38,0,.86-.06,1.29-.18l.19,1.69c-.47.18-1.22.3-1.84.3-1.67,0-2.79-.86-2.79-2.65v-3.42h-1.28v-1.69h1.29v-2.44h1.97v2.44h2.2v1.69h-2.15Z"/><path class="cls-5" d="M1087.32,111.73c0-2.3,1.58-3.94,3.67-3.94,1.18,0,1.98.45,2.48,1.08l.04-.92h1.99v7.6h-1.99l-.04-.92c-.5.63-1.3,1.08-2.48,1.08-2.09,0-3.67-1.67-3.67-3.98ZM1091.38,109.6c-1.22,0-2.04.92-2.04,2.13s.82,2.17,2.04,2.17,2.08-.95,2.08-2.17-.86-2.13-2.08-2.13Z"/><path class="cls-5" d="M1099.41,108.98c.39-.79,1.12-1.2,1.98-1.2.45,0,.83.12.99.17l-.16,1.81c-.21-.07-.54-.17-.94-.17-.89,0-1.84.48-1.84,2.05v3.9h-2.04v-7.6h1.96l.04,1.04Z"/><path class="cls-5" d="M1102.93,111.74c0-2.31,1.53-3.95,3.68-3.95,1.22,0,2,.44,2.51,1.08l.04-.92h1.95v7.33c0,2.41-2.05,3.6-4.42,3.6-1.24,0-2.37-.29-3.03-.63l.24-1.74c.58.31,1.69.57,2.66.57,1.28,0,2.53-.57,2.53-1.84v-.54c-.46.61-1.35,1.01-2.47,1.01-2.15,0-3.68-1.67-3.68-3.97ZM1107.04,109.61c-1.21,0-2.06.89-2.06,2.12s.85,2.15,2.06,2.15,2.07-.95,2.07-2.15-.87-2.12-2.07-2.12Z"/><path class="cls-5" d="M1119.9,114.99c-.74.42-1.76.71-2.87.71-2.69,0-4.42-1.59-4.42-3.96s1.65-3.96,3.9-3.96,4.11,1.76,3.61,4.57h-5.5c.21,1.06,1.16,1.57,2.41,1.57.94,0,1.82-.22,2.57-.58l.29,1.65ZM1118.31,110.99c-.06-.85-.7-1.5-1.74-1.5s-1.81.63-1.9,1.5h3.64Z"/><path class="cls-5" d="M1124.21,109.63v3.13c0,.79.44,1.14,1.12,1.14.38,0,.86-.06,1.29-.18l.19,1.69c-.47.18-1.22.3-1.84.3-1.67,0-2.8-.86-2.8-2.65v-3.42h-1.28v-1.69h1.29v-2.44h1.97v2.44h2.2v1.69h-2.15Z"/><circle class="cls-6" cx="861.18" cy="93.8" r="7.21"/><line class="cls-7" x1="861.18" y1="90.16" x2="861.18" y2="94.48"/><line class="cls-7" x1="861.18" y1="97.44" x2="861.18" y2="97.44"/></svg>