<?xml version="1.0" encoding="UTF-8"?><svg id="Layer_1" xmlns="http://www.w3.org/2000/svg" viewBox="0 0 381.41 65.24"><defs><style>.cls-1,.cls-2{fill:#eaa441;}.cls-3{stroke-linecap:round;}.cls-3,.cls-4{fill:none;stroke:#131827;stroke-miterlimit:10;stroke-width:1.5px;}.cls-2{isolation:isolate;opacity:.45;}.cls-5{fill:#afb0b2;}</style></defs><rect class="cls-2" width="381.41" height="65.24" rx="8.61" ry="8.61"/><rect class="cls-1" x="10.6" y="9.85" width="34.3" height="34.3" rx="9.11" ry="9.11"/><path class="cls-4" d="M26.79,18.65l-8.27,14.32c-.31.54.08,1.22.71,1.22h16.53c.63,0,1.02-.68.71-1.22l-8.27-14.32c-.31-.54-1.1-.54-1.41,0Z"/><line class="cls-3" x1="27.49" y1="23.46" x2="27.49" y2="27.77"/><line class="cls-3" x1="27.49" y1="30.73" x2="27.49" y2="30.73"/><path class="cls-1" d="M64.31,26.72h-7.93v-10.75h2.14v8.91h5.79v1.85h0Z"/><path class="cls-1" d="M68.97,18.96c2.34,0,4.06,1.72,4.06,3.96s-1.73,3.96-4.06,3.96-4.06-1.71-4.06-3.96,1.73-3.96,4.06-3.96ZM68.97,25.04c1.2,0,2.04-.9,2.04-2.12s-.85-2.11-2.04-2.11-2.04.9-2.04,2.11.86,2.12,2.04,2.12Z"/><path class="cls-1" d="M82.39,24.66l1.5-5.54h2.1l-2.24,7.6h-2.53l-1.36-4.61-1.36,4.61h-2.53l-2.24-7.6h2.1l1.5,5.54,1.63-5.42h1.81l1.62,5.42Z"/><path class="cls-1" d="M98.99,22.47h-2.89v-1.81h5.01v5.25c-1.09.6-2.68.97-4.03.97-3.9,0-6.33-2.3-6.33-5.54,0-3.5,2.8-5.53,6.42-5.53,1.22,0,2.42.25,3.48.73l-.17,1.91c-.48-.21-1.72-.69-3.19-.69-2.5,0-4.32,1.24-4.32,3.58,0,2.18,1.62,3.59,4.02,3.59.65,0,1.51-.09,2-.32v-2.15h0Z"/><path class="cls-1" d="M105.16,23.55v3.17h-2.14v-10.75h4.98c2.17,0,3.92,1.37,3.92,3.81,0,2.3-1.75,3.78-3.92,3.78h-2.84ZM105.16,17.82v3.89h2.6c1.13,0,1.96-.78,1.96-1.93,0-1.25-.85-1.96-1.96-1.96h-2.6Z"/><path class="cls-1" d="M116.14,15.81c1.74,0,3.03,1.29,3.03,2.99s-1.29,2.97-3.03,2.97-3.03-1.29-3.03-2.97,1.28-2.99,3.03-2.99ZM116.14,20.26c.84,0,1.44-.64,1.44-1.46s-.6-1.48-1.44-1.48-1.45.65-1.45,1.48.61,1.46,1.45,1.46ZM116.37,26.52l5.81-10.55h1.23v.19l-5.8,10.56h-1.24v-.21h0ZM123.63,20.92c1.75,0,3.04,1.29,3.04,2.99s-1.29,2.97-3.04,2.97-3.03-1.29-3.03-2.97,1.29-2.99,3.03-2.99ZM123.63,25.37c.85,0,1.44-.64,1.44-1.46s-.59-1.48-1.44-1.48-1.44.65-1.44,1.48.61,1.46,1.44,1.46Z"/><path class="cls-5" d="M63.17,45.28h-2.89v-1.81h5.01v5.25c-1.09.6-2.68.97-4.03.97-3.9,0-6.33-2.3-6.33-5.54,0-3.5,2.8-5.53,6.42-5.53,1.22,0,2.42.25,3.48.73l-.17,1.91c-.48-.21-1.72-.69-3.19-.69-2.5,0-4.32,1.24-4.32,3.58,0,2.18,1.62,3.59,4.02,3.59.65,0,1.51-.1,2-.32v-2.15h0Z"/><path class="cls-5" d="M69.34,46.36v3.17h-2.14v-10.75h4.98c2.17,0,3.92,1.37,3.92,3.81,0,2.3-1.75,3.78-3.92,3.78h-2.84ZM69.34,40.63v3.89h2.6c1.13,0,1.96-.78,1.96-1.93,0-1.25-.85-1.96-1.96-1.96h-2.6Z"/><path class="cls-5" d="M80.49,45.71c0-2.3,1.58-3.94,3.67-3.94,1.18,0,1.98.45,2.48,1.08l.04-.92h1.99v7.6h-1.99l-.04-.92c-.5.63-1.3,1.08-2.48,1.08-2.09,0-3.67-1.67-3.67-3.97h0ZM84.55,43.58c-1.22,0-2.04.92-2.04,2.13s.82,2.17,2.04,2.17,2.08-.95,2.08-2.17-.86-2.13-2.08-2.13Z"/><path class="cls-5" d="M93.19,43.61v3.13c0,.79.44,1.14,1.12,1.14.38,0,.86-.06,1.29-.18l.19,1.69c-.47.18-1.22.3-1.84.3-1.67,0-2.79-.86-2.79-2.65v-3.42h-1.28v-1.69h1.29v-2.44h1.97v2.44h2.2v1.69h-2.15Z"/><path class="cls-5" d="M107.97,47.66v1.87h-7.54v-1.62l3.45-3.19c1.05-.98,1.49-1.73,1.49-2.61,0-1.23-.88-1.61-1.93-1.61-.9,0-2,.34-2.62.72l-.29-1.81c.93-.5,2.04-.8,3.18-.8,2.06,0,3.9.94,3.9,3.38,0,1.42-.77,2.54-2.49,4.05-.59.51-1.19,1.06-1.84,1.62h4.69Z"/><path class="cls-5" d="M111.18,45.25h2.95v-2.38h2.05v2.38h1.49v1.82h-1.49v2.46h-2.05v-2.46h-5.24v-1.66l3.33-6.64h2.27l-3.3,6.48h0Z"/><path class="cls-5" d="M119.84,47.36c.67,0,1.18.51,1.18,1.16s-.51,1.16-1.18,1.16-1.17-.51-1.17-1.16.51-1.16,1.17-1.16Z"/><path class="cls-5" d="M121.9,44.19c0-2.96,1.3-5.58,4.56-5.58s4.56,2.72,4.56,5.58-1.31,5.5-4.56,5.5-4.56-2.53-4.56-5.5ZM126.46,47.77c1.77,0,2.45-1.78,2.45-3.62s-.69-3.62-2.45-3.62-2.45,1.77-2.45,3.62.7,3.62,2.45,3.62Z"/><path class="cls-5" d="M135.51,38.62c1.74,0,3.03,1.29,3.03,2.99s-1.29,2.97-3.03,2.97-3.03-1.29-3.03-2.97,1.28-2.99,3.03-2.99ZM135.51,43.07c.84,0,1.44-.64,1.44-1.46s-.6-1.48-1.44-1.48-1.45.65-1.45,1.48.61,1.46,1.45,1.46ZM135.74,49.32l5.81-10.55h1.23v.19l-5.8,10.56h-1.24v-.21h0ZM143.01,43.72c1.75,0,3.04,1.29,3.04,2.99s-1.29,2.97-3.04,2.97-3.03-1.29-3.03-2.97,1.29-2.99,3.03-2.99ZM143.01,48.17c.85,0,1.44-.64,1.44-1.46s-.59-1.48-1.44-1.48-1.44.65-1.44,1.48.61,1.46,1.44,1.46Z"/><path class="cls-5" d="M156.87,45.94h-5.48v-1.7h5.48v1.7Z"/><path class="cls-5" d="M162.74,38.77h5.01c1.93,0,3.33,1.2,3.33,2.94,0,.96-.4,1.71-1.29,2.27,1.24.45,1.85,1.42,1.85,2.56,0,1.76-1.35,2.99-3.34,2.99h-5.56v-10.75h0ZM167.47,43.29c.88,0,1.4-.55,1.4-1.34,0-.85-.63-1.34-1.48-1.34h-2.51v2.68s2.59,0,2.59,0ZM167.95,47.7c.85,0,1.42-.55,1.42-1.32,0-.84-.55-1.4-1.42-1.4h-3.07v2.72h3.07Z"/><path class="cls-5" d="M180.06,48.97c-.74.42-1.76.71-2.87.71-2.69,0-4.42-1.59-4.42-3.96s1.65-3.96,3.9-3.96,4.11,1.76,3.61,4.57h-5.5c.21,1.06,1.16,1.57,2.41,1.57.94,0,1.82-.22,2.57-.58l.29,1.65h0ZM178.47,44.97c-.05-.85-.7-1.5-1.74-1.5s-1.81.63-1.9,1.5h3.64Z"/><path class="cls-5" d="M183.9,49.53h-2.03v-11.15h2.03v11.15Z"/><path class="cls-5" d="M189.46,41.77c2.34,0,4.06,1.72,4.06,3.96s-1.73,3.96-4.06,3.96-4.06-1.71-4.06-3.96,1.73-3.96,4.06-3.96ZM189.46,47.85c1.2,0,2.04-.9,2.04-2.12s-.85-2.11-2.04-2.11-2.04.9-2.04,2.11.86,2.12,2.04,2.12Z"/><path class="cls-5" d="M202.87,47.46l1.5-5.54h2.1l-2.24,7.6h-2.53l-1.36-4.61-1.36,4.61h-2.53l-2.24-7.6h2.1l1.5,5.54,1.63-5.42h1.81l1.62,5.42Z"/><path class="cls-5" d="M218.74,47.66v1.87h-7.54v-1.62l3.44-3.19c1.05-.98,1.49-1.73,1.49-2.61,0-1.23-.88-1.61-1.93-1.61-.9,0-2,.34-2.62.72l-.29-1.81c.93-.5,2.04-.8,3.18-.8,2.06,0,3.9.94,3.9,3.38,0,1.42-.77,2.54-2.49,4.05-.59.51-1.19,1.06-1.84,1.62h4.7Z"/><path class="cls-5" d="M223.27,49.69c-1.24,0-2.47-.27-3.42-.71l.28-1.84c.82.42,1.9.67,2.91.67,1.36,0,2.33-.47,2.33-1.69,0-1.29-1.06-1.77-2.52-1.77-.79,0-1.58.1-2.21.29l-.36-.36.67-5.54h6.19v1.88h-4.52l-.22,2.09c.29-.06.67-.09,1.03-.09,2.27,0,4.21,1.09,4.21,3.38,0,2.65-1.98,3.66-4.36,3.66v.03Z"/><path class="cls-5" d="M232,38.62c1.74,0,3.03,1.29,3.03,2.99s-1.29,2.97-3.03,2.97-3.03-1.29-3.03-2.97,1.28-2.99,3.03-2.99h0ZM232,43.07c.84,0,1.44-.64,1.44-1.46s-.6-1.48-1.44-1.48-1.45.65-1.45,1.48.61,1.46,1.45,1.46h0ZM232.24,49.32l5.81-10.55h1.23v.19l-5.8,10.56h-1.24v-.21h0ZM239.5,43.72c1.75,0,3.04,1.29,3.04,2.99s-1.29,2.97-3.04,2.97-3.03-1.29-3.03-2.97,1.29-2.99,3.03-2.99ZM239.5,48.17c.85,0,1.44-.64,1.44-1.46s-.59-1.48-1.44-1.48-1.44.65-1.44,1.48.61,1.46,1.44,1.46Z"/><path class="cls-5" d="M250.63,43.61v3.13c0,.79.44,1.14,1.12,1.14.38,0,.86-.06,1.29-.18l.19,1.69c-.47.18-1.22.3-1.84.3-1.67,0-2.8-.86-2.8-2.65v-3.42h-1.28v-1.69h1.29v-2.44h1.97v2.44h2.2v1.69h-2.15,0Z"/><path class="cls-5" d="M253.88,45.71c0-2.3,1.58-3.94,3.67-3.94,1.18,0,1.98.45,2.48,1.08l.04-.92h1.99v7.6h-1.99l-.04-.92c-.5.63-1.3,1.08-2.48,1.08-2.09,0-3.67-1.67-3.67-3.97h0ZM257.95,43.58c-1.22,0-2.04.92-2.04,2.13s.82,2.17,2.04,2.17,2.08-.95,2.08-2.17-.86-2.13-2.08-2.13Z"/><path class="cls-5" d="M265.98,42.96c.39-.79,1.12-1.2,1.98-1.2.45,0,.83.12.99.17l-.16,1.81c-.21-.07-.54-.17-.94-.17-.89,0-1.84.48-1.84,2.05v3.9h-2.04v-7.6h1.96l.04,1.04h.01Z"/><path class="cls-5" d="M269.5,45.72c0-2.31,1.53-3.95,3.68-3.95,1.22,0,2,.44,2.51,1.08l.04-.92h1.95v7.33c0,2.41-2.05,3.59-4.42,3.59-1.24,0-2.37-.29-3.03-.63l.24-1.74c.58.31,1.69.57,2.66.57,1.28,0,2.53-.57,2.53-1.84v-.54c-.46.61-1.35,1.01-2.47,1.01-2.15,0-3.68-1.67-3.68-3.97h-.01ZM273.61,43.59c-1.21,0-2.06.9-2.06,2.12s.85,2.15,2.06,2.15,2.07-.95,2.07-2.15-.87-2.12-2.07-2.12Z"/><path class="cls-5" d="M286.47,48.97c-.74.42-1.76.71-2.87.71-2.69,0-4.42-1.59-4.42-3.96s1.65-3.96,3.9-3.96,4.11,1.76,3.61,4.57h-5.5c.21,1.06,1.16,1.57,2.41,1.57.94,0,1.82-.22,2.57-.58l.29,1.65h.01ZM284.87,44.97c-.05-.85-.7-1.5-1.74-1.5s-1.81.63-1.9,1.5h3.64,0Z"/><path class="cls-5" d="M290.78,43.61v3.13c0,.79.44,1.14,1.12,1.14.38,0,.86-.06,1.29-.18l.19,1.69c-.47.18-1.22.3-1.84.3-1.67,0-2.79-.86-2.79-2.65v-3.42h-1.28v-1.69h1.29v-2.44h1.97v2.44h2.2v1.69h-2.15Z"/></svg>